<svg width="155" height="39" viewBox="0 0 155 39" fill="none" xmlns="http://www.w3.org/2000/svg">
<path d="M49.376 31L39.712 8.6H45.312L53.76 28.44H50.464L59.04 8.6H64.192L54.496 31H49.376ZM145.846 31.256C144.374 31.256 142.955 31.0853 141.59 30.744C140.246 30.3813 139.179 29.9333 138.39 29.4L140.054 25.816C140.843 26.3067 141.771 26.712 142.838 27.032C143.926 27.3307 144.993 27.48 146.038 27.48C147.19 27.48 148.001 27.3413 148.47 27.064C148.961 26.7867 149.206 26.4027 149.206 25.912C149.206 25.5067 149.014 25.208 148.63 25.016C148.267 24.8027 147.777 24.6427 147.158 24.536C146.539 24.4293 145.857 24.3227 145.11 24.216C144.385 24.1093 143.649 23.9707 142.902 23.8C142.155 23.608 141.473 23.3307 140.854 22.968C140.235 22.6053 139.734 22.1147 139.35 21.496C138.987 20.8773 138.806 20.0773 138.806 19.096C138.806 18.008 139.115 17.048 139.734 16.216C140.374 15.384 141.291 14.7333 142.486 14.264C143.681 13.7733 145.11 13.528 146.774 13.528C147.947 13.528 149.142 13.656 150.358 13.912C151.574 14.168 152.587 14.5413 153.398 15.032L151.734 18.584C150.902 18.0933 150.059 17.7627 149.206 17.592C148.374 17.4 147.563 17.304 146.774 17.304C145.665 17.304 144.854 17.4533 144.342 17.752C143.83 18.0507 143.574 18.4347 143.574 18.904C143.574 19.3307 143.755 19.6507 144.118 19.864C144.502 20.0773 145.003 20.248 145.622 20.376C146.241 20.504 146.913 20.6213 147.638 20.728C148.385 20.8133 149.131 20.952 149.878 21.144C150.625 21.336 151.297 21.6133 151.894 21.976C152.513 22.3173 153.014 22.7973 153.398 23.416C153.782 24.0133 153.974 24.8027 153.974 25.784C153.974 26.8507 153.654 27.8 153.014 28.632C152.374 29.4427 151.446 30.0827 150.23 30.552C149.035 31.0213 147.574 31.256 145.846 31.256Z" fill="#222222"/>
<path d="M73.443 31.256C72.0137 31.256 70.7337 30.9787 69.603 30.424C68.4937 29.8693 67.6297 29.0267 67.011 27.896C66.3923 26.744 66.083 25.2827 66.083 23.512V13.784H71.075V22.776C71.075 24.2053 71.3737 25.2613 71.971 25.944C72.5897 26.6053 73.4537 26.936 74.563 26.936C75.331 26.936 76.0137 26.776 76.611 26.456C77.2083 26.1147 77.6777 25.6027 78.019 24.92C78.3603 24.216 78.531 23.3413 78.531 22.296V13.784H83.523V31H78.787V26.264L79.651 27.64C79.075 28.8347 78.2217 29.7413 77.091 30.36C75.9817 30.9573 74.7657 31.256 73.443 31.256ZM88.1478 31V7.256H93.1398V31H88.1478ZM107.949 31.256C106.498 31.256 105.229 30.936 104.141 30.296C103.053 29.656 102.199 28.6853 101.581 27.384C100.983 26.0613 100.685 24.3973 100.685 22.392C100.685 20.3653 100.973 18.7013 101.549 17.4C102.125 16.0987 102.957 15.128 104.045 14.488C105.133 13.848 106.434 13.528 107.949 13.528C109.57 13.528 111.021 13.9013 112.301 14.648C113.602 15.3733 114.626 16.3973 115.373 17.72C116.141 19.0427 116.525 20.6 116.525 22.392C116.525 24.2053 116.141 25.7733 115.373 27.096C114.626 28.4187 113.602 29.4427 112.301 30.168C111.021 30.8933 109.57 31.256 107.949 31.256ZM97.7728 37.208V13.784H102.541V17.304L102.445 22.424L102.765 27.512V37.208H97.7728ZM107.085 27.16C107.917 27.16 108.653 26.968 109.293 26.584C109.954 26.2 110.477 25.656 110.861 24.952C111.266 24.2267 111.469 23.3733 111.469 22.392C111.469 21.3893 111.266 20.536 110.861 19.832C110.477 19.128 109.954 18.584 109.293 18.2C108.653 17.816 107.917 17.624 107.085 17.624C106.253 17.624 105.506 17.816 104.845 18.2C104.183 18.584 103.661 19.128 103.277 19.832C102.893 20.536 102.701 21.3893 102.701 22.392C102.701 23.3733 102.893 24.2267 103.277 24.952C103.661 25.656 104.183 26.2 104.845 26.584C105.506 26.968 106.253 27.16 107.085 27.16ZM128.411 31.256C126.448 31.256 124.72 30.872 123.227 30.104C121.755 29.336 120.613 28.2907 119.803 26.968C118.992 25.624 118.587 24.0987 118.587 22.392C118.587 20.664 118.981 19.1387 119.771 17.816C120.581 16.472 121.68 15.4267 123.067 14.68C124.453 13.912 126.021 13.528 127.771 13.528C129.456 13.528 130.971 13.8907 132.315 14.616C133.68 15.32 134.757 16.344 135.547 17.688C136.336 19.0107 136.731 20.6 136.731 22.456C136.731 22.648 136.72 22.872 136.699 23.128C136.677 23.3627 136.656 23.5867 136.635 23.8H122.651V20.888H134.01L132.091 21.752C132.091 20.856 131.909 20.0773 131.547 19.416C131.184 18.7547 130.683 18.2427 130.043 17.88C129.403 17.496 128.656 17.304 127.803 17.304C126.949 17.304 126.192 17.496 125.531 17.88C124.891 18.2427 124.389 18.7653 124.027 19.448C123.664 20.1093 123.483 20.8987 123.483 21.816V22.584C123.483 23.5227 123.685 24.3547 124.091 25.08C124.517 25.784 125.104 26.328 125.851 26.712C126.619 27.0747 127.515 27.256 128.539 27.256C129.456 27.256 130.256 27.1173 130.939 26.84C131.643 26.5627 132.283 26.1467 132.859 25.592L135.515 28.472C134.725 29.368 133.733 30.0613 132.539 30.552C131.344 31.0213 129.968 31.256 128.411 31.256Z" fill="#EE7505"/>
<path d="M4.28984 33.543L6.34351 35.4286C6.74803 35.8 7.28323 36 7.84954 36H30.9938C31.6846 36 32.2447 35.4857 32.2447 34.8515V27.446C32.2447 26.9775 32.1203 26.5146 31.8838 26.0975L29.7492 22.3662C29.5127 21.9548 29.1642 21.5948 28.741 21.3263L16.5185 13.6066V4.9669C16.5185 4.64692 16.3505 4.34979 16.0642 4.17265C15.778 3.9898 15.417 3.9498 15.0934 4.06408L8.38474 6.40114L1.66985 4.06408C1.34624 3.9498 0.985288 3.9898 0.699018 4.17265C0.412748 4.3555 0.24472 4.65263 0.24472 4.9669V13.3323C0.24472 13.858 0.468758 14.3494 0.867046 14.7151L3.66129 17.2807V32.1487C3.66129 32.6744 3.88533 33.1658 4.28362 33.5315L4.28984 33.543ZM4.91217 18.4292L6.94095 20.292C7.73752 21.0234 9.03196 21.0234 9.82232 20.292L13.0958 17.2864L4.90594 30.5602V18.4292H4.91217ZM6.56133 18.3264H10.2144L8.95106 19.4863C8.6399 19.7721 8.13581 19.7721 7.82465 19.4863L6.56133 18.3264ZM18.4789 34.8572L31.0063 27.8917V34.8572H18.4789ZM30.7823 26.6346C30.7823 26.6346 30.7823 26.6632 30.7947 26.6746L27.0856 28.7374L29.0211 23.5662L30.7823 26.6346ZM28.0378 22.2748C28.0876 22.3034 28.1063 22.3548 28.1498 22.3891L25.424 29.6574L16.0767 34.8572H7.85577C7.61928 34.8572 7.39525 34.7715 7.22722 34.6172L5.17354 32.7316C5.12998 32.6916 5.1362 32.623 5.10509 32.5716L16.1016 14.738L28.0316 22.2748H28.0378ZM3.84799 10.3667L1.48937 12.5323V6.55542L3.84799 10.3667ZM2.26106 5.4926L7.25833 7.23539L4.75658 9.53244L2.25483 5.49831L2.26106 5.4926ZM15.2677 6.55542V12.5323L12.9091 10.3667L15.2677 6.55542ZM11.9942 9.52673L9.49248 7.22968L14.4898 5.48688L11.988 9.52673H11.9942ZM1.74453 13.9094L8.37852 7.81822L15.0125 13.9094L11.4528 17.1779H5.31045L1.75075 13.9094H1.74453Z" fill="#EE7505"/>
</svg>
